# xmcd CD database file
#
# Track frame offsets:
#	150
#	16191
#	33562
#	49673
#	64242
#	77878
#	94579
#	110104
#	126779
#	143134
#	160092
#	182860
#	203045
#
# Disc length: 2932 seconds
#
# Revision: 0
# Processed by: cddbd v1.5PL3 Copyright (c) Steve Scherf et al.
# Submitted via: CDex 1.51
#
DISCID=b00b720d
DTITLE=Solea - Solea
DYEAR=2004
DGENRE=Punk Rock
TTITLE0=Apotheke
TTITLE1=Mercy was here
TTITLE2=Underneath It All
TTITLE3=Frankie Machine
TTITLE4=I'm Waiting
TTITLE5=Where You Belong
TTITLE6=So Far Gone
TTITLE7=Shuffle
TTITLE8=Leaving Today
TTITLE9=Make It Last
TTITLE10=The Last Word
TTITLE11=Even Stranger Days
TTITLE12=Night And Day
EXTD=YEAR: 2004
EXTT0=
EXTT1=
EXTT2=
EXTT3=
EXTT4=
EXTT5=
EXTT6=
EXTT7=
EXTT8=
EXTT9=
EXTT10=
EXTT11=
EXTT12=
PLAYORDER=
